<mxfile host="drawio-plugin" modified="2022-10-22T10:16:05.287Z" agent="5.0 (Windows NT 6.2; Win64; x64) AppleWebKit/537.36 (KHTML, like Gecko) Chrome/98.0.4758.102 Safari/537.36" etag="HsXjiZTTFl6rIiCsblvw" version="15.5.4" type="embed"><diagram id="L7CljHI67pswBbGMYpq-" name="Страница 1"><mxGraphModel dx="1088" dy="495" grid="1" gridSize="10" guides="1" tooltips="1" connect="1" arrows="1" fold="1" page="1" pageScale="1" pageWidth="827" pageHeight="1169" math="0" shadow="0"><root><mxCell id="0"/><mxCell id="1" parent="0"/><mxCell id="aeLU5VvGemaCeDFHOq5Q-17" style="edgeStyle=orthogonalEdgeStyle;rounded=0;orthogonalLoop=1;jettySize=auto;html=1;exitX=1;exitY=0.5;exitDx=0;exitDy=0;entryX=1;entryY=0.5;entryDx=0;entryDy=0;" parent="1" source="aeLU5VvGemaCeDFHOq5Q-1" target="aeLU5VvGemaCeDFHOq5Q-5" edge="1"><mxGeometry relative="1" as="geometry"><Array as="points"><mxPoint x="520" y="60"/><mxPoint x="520" y="440"/></Array></mxGeometry></mxCell><mxCell id="8" style="edgeStyle=orthogonalEdgeStyle;rounded=0;orthogonalLoop=1;jettySize=auto;html=1;exitX=0;exitY=0.5;exitDx=0;exitDy=0;entryX=0.5;entryY=0;entryDx=0;entryDy=0;" edge="1" parent="1" source="aeLU5VvGemaCeDFHOq5Q-1" target="2"><mxGeometry relative="1" as="geometry"/></mxCell><mxCell id="aeLU5VvGemaCeDFHOq5Q-1" value="Запрос ввода;&lt;br&gt;Меню калькулятора" style="rounded=0;whiteSpace=wrap;html=1;" parent="1" vertex="1"><mxGeometry x="360" y="30" width="120" height="60" as="geometry"/></mxCell><mxCell id="aeLU5VvGemaCeDFHOq5Q-16" style="edgeStyle=orthogonalEdgeStyle;rounded=0;orthogonalLoop=1;jettySize=auto;html=1;exitX=0.75;exitY=0;exitDx=0;exitDy=0;entryX=0.75;entryY=1;entryDx=0;entryDy=0;" parent="1" source="aeLU5VvGemaCeDFHOq5Q-5" target="aeLU5VvGemaCeDFHOq5Q-6" edge="1"><mxGeometry relative="1" as="geometry"/></mxCell><mxCell id="aeLU5VvGemaCeDFHOq5Q-5" value="Журнал логирования операции&lt;br&gt;(БД)" style="whiteSpace=wrap;html=1;" parent="1" vertex="1"><mxGeometry x="360" y="410" width="120" height="60" as="geometry"/></mxCell><mxCell id="aeLU5VvGemaCeDFHOq5Q-15" style="edgeStyle=orthogonalEdgeStyle;rounded=0;orthogonalLoop=1;jettySize=auto;html=1;exitX=0.25;exitY=1;exitDx=0;exitDy=0;entryX=0.25;entryY=0;entryDx=0;entryDy=0;" parent="1" source="aeLU5VvGemaCeDFHOq5Q-6" target="aeLU5VvGemaCeDFHOq5Q-5" edge="1"><mxGeometry relative="1" as="geometry"/></mxCell><mxCell id="aeLU5VvGemaCeDFHOq5Q-6" value="Вывод результата" style="whiteSpace=wrap;html=1;" parent="1" vertex="1"><mxGeometry x="360" y="210" width="120" height="60" as="geometry"/></mxCell><mxCell id="9" style="edgeStyle=orthogonalEdgeStyle;rounded=0;orthogonalLoop=1;jettySize=auto;html=1;exitX=1;exitY=0.5;exitDx=0;exitDy=0;entryX=0;entryY=0.5;entryDx=0;entryDy=0;" edge="1" parent="1" source="2" target="aeLU5VvGemaCeDFHOq5Q-6"><mxGeometry relative="1" as="geometry"/></mxCell><mxCell id="10" style="edgeStyle=orthogonalEdgeStyle;rounded=0;orthogonalLoop=1;jettySize=auto;html=1;exitX=0.5;exitY=1;exitDx=0;exitDy=0;entryX=0;entryY=0.5;entryDx=0;entryDy=0;" edge="1" parent="1" source="2" target="aeLU5VvGemaCeDFHOq5Q-5"><mxGeometry relative="1" as="geometry"/></mxCell><mxCell id="2" value="Модуль калькулятора" style="rounded=0;whiteSpace=wrap;html=1;" vertex="1" parent="1"><mxGeometry x="180" y="210" width="120" height="60" as="geometry"/></mxCell></root></mxGraphModel></diagram></mxfile>